{"buffers":[{"uri":"DL-DN1 Octa o1 v2.gltf.bin","byteLength":1036944}],"asset":{"version":"2.0","generator":"gltfpack 0.16"},"bufferViews":[{"buffer":0,"byteOffset":0,"byteLength":400788,"byteStride":12,"target":34962},{"buffer":0,"byteOffset":400788,"byteLength":400788,"byteStride":12,"target":34962},{"buffer":0,"byteOffset":801576,"byteLength":235368,"target":34963}],"accessors":[{"bufferView":0,"byteOffset":0,"componentType":5126,"count":2911,"type":"VEC3","min":[-0.00387170003,-0.00858759973,0.00307260011],"max":[0.00249999994,0.00835059956,0.00716450019]},{"bufferView":1,"byteOffset":0,"componentType":5126,"count":2911,"type":"VEC3"},{"bufferView":2,"byteOffset":0,"componentType":5123,"count":10881,"type":"SCALAR"},{"bufferView":0,"byteOffset":34932,"componentType":5126,"count":5319,"type":"VEC3","min":[-0.00928729959,-0.0085687004,0.00261360011],"max":[0.00928729959,0.00835059956,0.00913089979]},{"bufferView":1,"byteOffset":34932,"componentType":5126,"count":5319,"type":"VEC3"},{"bufferView":2,"byteOffset":21762,"componentType":5123,"count":24003,"type":"SCALAR"},{"bufferView":0,"byteOffset":98760,"componentType":5126,"count":90,"type":"VEC3","min":[-0.00159989996,-0.00843839999,0.0040469002],"max":[0.00159989996,-0.00784219988,0.00487590022]},{"bufferView":1,"byteOffset":98760,"componentType":5126,"count":90,"type":"VEC3"},{"bufferView":2,"byteOffset":69768,"componentType":5123,"count":234,"type":"SCALAR"},{"bufferView":0,"byteOffset":99840,"componentType":5126,"count":2063,"type":"VEC3","min":[-0.00157139997,-0.00844210014,0.00376449991],"max":[0.00387170003,0.00524159987,0.00561759993]},{"bufferView":1,"byteOffset":99840,"componentType":5126,"count":2063,"type":"VEC3"},{"bufferView":2,"byteOffset":70236,"componentType":5123,"count":7830,"type":"SCALAR"},{"bufferView":0,"byteOffset":124596,"componentType":5126,"count":2948,"type":"VEC3","min":[-0.00928729959,-0.00810229965,0.00263080001],"max":[0.00928729959,0.0081423996,0.00561759993]},{"bufferView":1,"byteOffset":124596,"componentType":5126,"count":2948,"type":"VEC3"},{"bufferView":2,"byteOffset":85896,"componentType":5123,"count":11328,"type":"SCALAR"},{"bufferView":0,"byteOffset":159972,"componentType":5126,"count":17587,"type":"VEC3","min":[-0.00767299999,-0.00810229965,0.00290359999],"max":[0.00767299999,0.00826789998,0.0055538998]},{"bufferView":1,"byteOffset":159972,"componentType":5126,"count":17587,"type":"VEC3"},{"bufferView":2,"byteOffset":108552,"componentType":5123,"count":55518,"type":"SCALAR"},{"bufferView":0,"byteOffset":371016,"componentType":5126,"count":520,"type":"VEC3","min":[-0.00795750041,-0.00179410004,0.00363379996],"max":[0.00795750041,0.00235760002,0.00501819979]},{"bufferView":1,"byteOffset":371016,"componentType":5126,"count":520,"type":"VEC3"},{"bufferView":2,"byteOffset":219588,"componentType":5123,"count":2712,"type":"SCALAR"},{"bufferView":0,"byteOffset":377256,"componentType":5126,"count":44,"type":"VEC3","min":[-0.00138449995,0.00748139992,0.00423560012],"max":[0.00144040002,0.00827029999,0.00502450019]},{"bufferView":1,"byteOffset":377256,"componentType":5126,"count":44,"type":"VEC3"},{"bufferView":2,"byteOffset":225012,"componentType":5123,"count":108,"type":"SCALAR"},{"bufferView":0,"byteOffset":377784,"componentType":5126,"count":1134,"type":"VEC3","min":[-0.00110200001,-0.0072790999,0.00502410019],"max":[0.00100559997,-0.00567469979,0.00623229984]},{"bufferView":1,"byteOffset":377784,"componentType":5126,"count":1134,"type":"VEC3"},{"bufferView":2,"byteOffset":225228,"componentType":5123,"count":2820,"type":"SCALAR"},{"bufferView":0,"byteOffset":391392,"componentType":5126,"count":783,"type":"VEC3","min":[-0.000143500001,-0.0065088002,0.00648480002],"max":[0.000101500002,-0.00459850021,0.00904969964]},{"bufferView":1,"byteOffset":391392,"componentType":5126,"count":783,"type":"VEC3"},{"bufferView":2,"byteOffset":230868,"componentType":5123,"count":2250,"type":"SCALAR"}],"materials":[{"pbrMetallicRoughness":{"baseColorFactor":[0.0980392173,0.0980392173,0.0980392173,1],"metallicFactor":0,"roughnessFactor":0},"doubleSided":true},{"pbrMetallicRoughness":{"baseColorFactor":[0.964705884,0.964705884,0.952941179,1],"metallicFactor":0,"roughnessFactor":0},"doubleSided":true},{"pbrMetallicRoughness":{"baseColorFactor":[0.768627465,0.20784314,0.152941182,1],"metallicFactor":0,"roughnessFactor":0},"doubleSided":true},{"pbrMetallicRoughness":{"baseColorFactor":[0.215686277,0.215686277,0.215686277,1],"metallicFactor":0,"roughnessFactor":0},"doubleSided":true},{"pbrMetallicRoughness":{"baseColorFactor":[0.701960802,0.701960802,0.701960802,1],"metallicFactor":0,"roughnessFactor":0},"doubleSided":true},{"pbrMetallicRoughness":{"baseColorFactor":[0.627451003,0.627451003,0.627451003,1],"metallicFactor":0,"roughnessFactor":0},"doubleSided":true},{"pbrMetallicRoughness":{"baseColorFactor":[0.850980401,0.827450991,0.788235307,1],"metallicFactor":0,"roughnessFactor":0},"doubleSided":true},{"pbrMetallicRoughness":{"baseColorFactor":[0.960784316,0.960784316,0.964705884,1],"metallicFactor":0,"roughnessFactor":0},"doubleSided":true},{"pbrMetallicRoughness":{"baseColorFactor":[0.43921569,0.501960814,0.564705908,1],"metallicFactor":0,"roughnessFactor":0},"doubleSided":true},{"pbrMetallicRoughness":{"baseColorFactor":[0.145098045,0.670588255,0.709803939,1],"metallicFactor":0,"roughnessFactor":0},"doubleSided":true}],"meshes":[{"primitives":[{"attributes":{"POSITION":0,"NORMAL":1},"mode":4,"indices":2,"material":0}]},{"primitives":[{"attributes":{"POSITION":3,"NORMAL":4},"mode":4,"indices":5,"material":1},{"attributes":{"POSITION":6,"NORMAL":7},"mode":4,"indices":8,"material":2},{"attributes":{"POSITION":9,"NORMAL":10},"mode":4,"indices":11,"material":3}]},{"primitives":[{"attributes":{"POSITION":12,"NORMAL":13},"mode":4,"indices":14,"material":4}]},{"primitives":[{"attributes":{"POSITION":15,"NORMAL":16},"mode":4,"indices":17,"material":5}]},{"primitives":[{"attributes":{"POSITION":18,"NORMAL":19},"mode":4,"indices":20,"material":6}]},{"primitives":[{"attributes":{"POSITION":21,"NORMAL":22},"mode":4,"indices":23,"material":7}]},{"primitives":[{"attributes":{"POSITION":24,"NORMAL":25},"mode":4,"indices":26,"material":8}]},{"primitives":[{"attributes":{"POSITION":27,"NORMAL":28},"mode":4,"indices":29,"material":9}]}],"nodes":[{"mesh":0},{"mesh":1},{"mesh":2},{"mesh":3},{"mesh":4},{"mesh":5},{"mesh":6},{"mesh":7},{"children":[0]},{"children":[1]},{"children":[2]},{"children":[3]},{"children":[4]},{"children":[5]},{"children":[6]},{"children":[7]}],"scenes":[{"nodes":[8,9,10,11,12,13,14,15]}]}