{
  "accessors": [
    {
      "bufferView": 3,
      "componentType": 5126,
      "count": 19640,
      "max": [
        1.1723394393920898,
        3.124391555786133,
        3.9553472995758057
      ],
      "min": [
        -1.480485439300537,
        -0.3432885408401489,
        -7.450899600982666
      ],
      "type": "VEC3"
    },
    {
      "bufferView": 3,
      "byteOffset": 235680,
      "componentType": 5126,
      "count": 19640,
      "max": [
        1.0,
        1.0,
        1.0
      ],
      "min": [
        -1.0,
        -1.0,
        -1.0
      ],
      "type": "VEC3"
    },
    {
      "bufferView": 2,
      "componentType": 5126,
      "count": 19640,
      "max": [
        0.9990234375,
        0.998046875
      ],
      "min": [
        0.0019779205322265625,
        0.00327301025390625
      ],
      "type": "VEC2"
    },
    {
      "bufferView": 1,
      "componentType": 5125,
      "count": 44553,
      "type": "SCALAR"
    },
    {
      "bufferView": 3,
      "byteOffset": 471360,
      "componentType": 5126,
      "count": 8,
      "max": [
        5.739131450653076,
        2.6729068756103516,
        5.739131450653076
      ],
      "min": [
        -5.74467134475708,
        2.672905921936035,
        -5.74467134475708
      ],
      "type": "VEC3"
    },
    {
      "bufferView": 3,
      "byteOffset": 471456,
      "componentType": 5126,
      "count": 8,
      "max": [
        0.0,
        1.0,
        7.549790126404332e-08
      ],
      "min": [
        0.0,
        -1.0,
        -7.549790126404332e-08
      ],
      "type": "VEC3"
    },
    {
      "bufferView": 2,
      "byteOffset": 157120,
      "componentType": 5126,
      "count": 8,
      "max": [
        1.0,
        1.0
      ],
      "min": [
        0.0,
        0.0
      ],
      "type": "VEC2"
    },
    {
      "bufferView": 1,
      "byteOffset": 178212,
      "componentType": 5125,
      "count": 12,
      "type": "SCALAR"
    },
    {
      "bufferView": 5,
      "componentType": 5126,
      "count": 5,
      "max": [
        1.4102742671966553,
        0.0,
        0.0,
        0.0,
        0.0,
        1.4102742671966553,
        1.0647274706343524e-07,
        0.0,
        0.0,
        0.0,
        1.4102742671966553,
        0.0,
        0.0,
        0.0,
        0.0,
        1.0
      ],
      "min": [
        1.0,
        0.0,
        0.0,
        0.0,
        0.0,
        1.0,
        0.0,
        0.0,
        0.0,
        -1.0647274706343524e-07,
        1.0,
        0.0,
        0.0,
        0.0,
        0.0,
        1.0
      ],
      "type": "MAT4"
    },
    {
      "bufferView": 0,
      "componentType": 5123,
      "count": 19640,
      "type": "VEC4"
    },
    {
      "bufferView": 4,
      "componentType": 5126,
      "count": 19640,
      "max": [
        1.0,
        0.0,
        0.0,
        0.0
      ],
      "min": [
        1.0,
        0.0,
        0.0,
        0.0
      ],
      "type": "VEC4"
    },
    {
      "bufferView": 0,
      "byteOffset": 157120,
      "componentType": 5123,
      "count": 8,
      "type": "VEC4"
    },
    {
      "bufferView": 4,
      "byteOffset": 314240,
      "componentType": 5126,
      "count": 8,
      "max": [
        1.0,
        0.0,
        0.0,
        0.0
      ],
      "min": [
        1.0,
        0.0,
        0.0,
        0.0
      ],
      "type": "VEC4"
    },
    {
      "bufferView": 6,
      "componentType": 5126,
      "count": 6,
      "max": [
        1.600000023841858
      ],
      "min": [
        1.399999976158142
      ],
      "type": "SCALAR"
    },
    {
      "bufferView": 7,
      "componentType": 5126,
      "count": 6,
      "max": [
        2.357995517796702e-15,
        0.875633716583252,
        9.451798195229586e-16,
        1.0
      ],
      "min": [
        0.0,
        -0.9396925568580627,
        -0.0,
        0.3420203924179077
      ],
      "type": "VEC4"
    }
  ],
  "animations": [
    {
      "channels": [
        {
          "sampler": 0,
          "target": {
            "node": 8,
            "path": "rotation"
          }
        }
      ],
      "name": "RotorBlurredAction",
      "samplers": [
        {
          "input": 13,
          "interpolation": "LINEAR",
          "output": 14
        }
      ]
    }
  ],
  "asset": {
    "extras": {
      "author": "BOOST7 (https://sketchfab.com/bogdanvelia64)",
      "license": "CC-BY-4.0 (http://creativecommons.org/licenses/by/4.0/)",
      "source": "https://sketchfab.com/3d-models/nfs-unbound-police-helicopter-b4ecf40caea24eb7b5c6b762e522dd0a",
      "title": "NFS UNBOUND POLICE HELICOPTER"
    },
    "generator": "Sketchfab-16.64.0",
    "version": "2.0"
  },
  "bufferViews": [
    {
      "buffer": 0,
      "byteLength": 157184,
      "byteStride": 8,
      "name": "shortBufferViews",
      "target": 34962
    },
    {
      "buffer": 0,
      "byteLength": 178260,
      "byteOffset": 157184,
      "name": "floatBufferViews",
      "target": 34963
    },
    {
      "buffer": 0,
      "byteLength": 157184,
      "byteOffset": 335444,
      "byteStride": 8,
      "name": "floatBufferViews",
      "target": 34962
    },
    {
      "buffer": 0,
      "byteLength": 471552,
      "byteOffset": 492628,
      "byteStride": 12,
      "name": "floatBufferViews",
      "target": 34962
    },
    {
      "buffer": 0,
      "byteLength": 314368,
      "byteOffset": 964180,
      "byteStride": 16,
      "name": "floatBufferViews",
      "target": 34962
    },
    {
      "buffer": 0,
      "byteLength": 320,
      "byteOffset": 1278548,
      "name": "floatBufferViews"
    },
    {
      "buffer": 0,
      "byteLength": 24,
      "byteOffset": 1278868,
      "name": "floatBufferViews"
    },
    {
      "buffer": 0,
      "byteLength": 96,
      "byteOffset": 1278892,
      "byteStride": 16,
      "name": "floatBufferViews"
    }
  ],
  "buffers": [
    {
      "byteLength": 1278988,
      "uri": "scene.bin"
    }
  ],
  "images": [
    {
      "uri": "textures/Material.002_baseColor.png"
    },
    {
      "uri": "textures/Material.001_baseColor.png"
    }
  ],
  "materials": [
    {
      "doubleSided": true,
      "name": "Material.002",
      "pbrMetallicRoughness": {
        "baseColorTexture": {
          "index": 0
        },
        "metallicFactor": 0.0,
        "roughnessFactor": 0.5
      }
    },
    {
      "alphaMode": "BLEND",
      "doubleSided": true,
      "name": "Material.001",
      "pbrMetallicRoughness": {
        "baseColorTexture": {
          "index": 1
        },
        "metallicFactor": 0.0,
        "roughnessFactor": 0.5
      }
    }
  ],
  "meshes": [
    {
      "name": "Object_0",
      "primitives": [
        {
          "attributes": {
            "JOINTS_0": 9,
            "NORMAL": 1,
            "POSITION": 0,
            "TEXCOORD_0": 2,
            "WEIGHTS_0": 10
          },
          "indices": 3,
          "material": 0,
          "mode": 4
        }
      ]
    },
    {
      "name": "Object_1",
      "primitives": [
        {
          "attributes": {
            "JOINTS_0": 11,
            "NORMAL": 5,
            "POSITION": 4,
            "TEXCOORD_0": 6,
            "WEIGHTS_0": 12
          },
          "indices": 7,
          "material": 1,
          "mode": 4
        }
      ]
    }
  ],
  "nodes": [
    {
      "children": [
        1
      ],
      "matrix": [
        0.19775815308094025,
        0.0,
        0.0,
        0.0,
        0.0,
        4.391113097156124e-17,
        -0.19775815308094025,
        0.0,
        0.0,
        0.19775815308094025,
        4.391113097156124e-17,
        0.0,
        0.0,
        0.0,
        0.0,
        1.0
      ],
      "name": "Sketchfab_model"
    },
    {
      "children": [
        2
      ],
      "name": "root"
    },
    {
      "children": [
        3
      ],
      "matrix": [
        1.0,
        0.0,
        0.0,
        0.0,
        0.0,
        2.220446049250313e-16,
        1.0,
        0.0,
        0.0,
        -1.0,
        2.220446049250313e-16,
        0.0,
        0.0,
        0.0,
        0.0,
        1.0
      ],
      "name": "GLTF_SceneRootNode"
    },
    {
      "children": [
        4
      ],
      "matrix": [
        0.7090818881988525,
        0.0,
        0.0,
        0.0,
        0.0,
        0.0,
        0.7090818881988525,
        0.0,
        0.0,
        -0.7090818881988525,
        0.0,
        0.0,
        0.0,
        0.0,
        0.0,
        1.0
      ],
      "name": "ROOT_6"
    },
    {
      "children": [
        5,
        7,
        9,
        6,
        8
      ],
      "name": "GLTF_created_0"
    },
    {
      "children": [
        10,
        11,
        12,
        13
      ],
      "name": "GLTF_created_0_rootJoint"
    },
    {
      "name": "M_Parts_Max.002_4"
    },
    {
      "mesh": 0,
      "name": "Object_7",
      "skin": 0
    },
    {
      "name": "RotorBlurred_5"
    },
    {
      "mesh": 1,
      "name": "Object_9",
      "skin": 0
    },
    {
      "name": "PART_0_0",
      "rotation": [
        -0.7071068286895752,
        0.0,
        0.0,
        0.7071068286895752
      ],
      "scale": [
        0.9999999403953552,
        0.9999999403953552,
        0.9999999403953552
      ]
    },
    {
      "name": "PART_1_1",
      "rotation": [
        -0.7071068286895752,
        0.0,
        0.0,
        0.7071068286895752
      ],
      "scale": [
        0.9999999403953552,
        0.9999999403953552,
        0.9999999403953552
      ]
    },
    {
      "name": "PART_2_2",
      "rotation": [
        -0.7071068286895752,
        0.0,
        0.0,
        0.7071068286895752
      ],
      "scale": [
        0.9999999403953552,
        0.9999999403953552,
        0.9999999403953552
      ]
    },
    {
      "name": "PART_3_3",
      "rotation": [
        -0.7071068286895752,
        0.0,
        0.0,
        0.7071068286895752
      ],
      "scale": [
        0.9999999403953552,
        0.9999999403953552,
        0.9999999403953552
      ]
    }
  ],
  "samplers": [
    {
      "magFilter": 9729,
      "minFilter": 9987,
      "wrapS": 10497,
      "wrapT": 10497
    }
  ],
  "scene": 0,
  "scenes": [
    {
      "name": "Sketchfab_Scene",
      "nodes": [
        0
      ]
    }
  ],
  "skins": [
    {
      "inverseBindMatrices": 8,
      "joints": [
        5,
        10,
        11,
        12,
        13
      ],
      "skeleton": 5
    }
  ],
  "textures": [
    {
      "sampler": 0,
      "source": 0
    },
    {
      "sampler": 0,
      "source": 1
    }
  ]
}
