{
  "accessors": [
    {
      "bufferView": 1,
      "componentType": 5126,
      "count": 47104,
      "max": [
        0.6672300100326538,
        4.85053014755249,
        -0.01583000086247921
      ],
      "min": [
        -4.076210021972656,
        -5.640510082244873,
        -0.9947800040245056
      ],
      "type": "VEC3"
    },
    {
      "bufferView": 1,
      "byteOffset": 565248,
      "componentType": 5126,
      "count": 47104,
      "max": [
        0.9999983906745911,
        0.9999995827674866,
        1.0
      ],
      "min": [
        -0.9999999403953552,
        -0.9999966025352478,
        -1.0
      ],
      "type": "VEC3"
    },
    {
      "bufferView": 0,
      "componentType": 5125,
      "count": 282624,
      "type": "SCALAR"
    }
  ],
  "asset": {
    "extras": {
      "author": "Marcel Porsiel (https://sketchfab.com/Marcemellow)",
      "license": "CC-BY-4.0 (http://creativecommons.org/licenses/by/4.0/)",
      "source": "https://sketchfab.com/3d-models/paragraph-79c60c6f49544b87bfbfa91fd294c96b",
      "title": "paragraph"
    },
    "generator": "Sketchfab-12.67.0",
    "version": "2.0"
  },
  "bufferViews": [
    {
      "buffer": 0,
      "byteLength": 1130496,
      "name": "floatBufferViews",
      "target": 34963
    },
    {
      "buffer": 0,
      "byteLength": 1130496,
      "byteOffset": 1130496,
      "byteStride": 12,
      "name": "floatBufferViews",
      "target": 34962
    }
  ],
  "buffers": [
    {
      "byteLength": 2260992,
      "uri": "scene.bin"
    }
  ],
  "materials": [
    {
      "doubleSided": true,
      "name": "Material",
      "pbrMetallicRoughness": {
        "baseColorFactor": [
          1.0,
          0.2711979287217848,
          0.0,
          1.0
        ],
        "metallicFactor": 0.0,
        "roughnessFactor": 0.6
      }
    }
  ],
  "meshes": [
    {
      "name": "paragraph_0",
      "primitives": [
        {
          "attributes": {
            "NORMAL": 1,
            "POSITION": 0
          },
          "indices": 2,
          "material": 0,
          "mode": 4
        }
      ]
    }
  ],
  "nodes": [
    {
      "children": [
        1
      ],
      "matrix": [
        0.031941771507263184,
        0.0,
        0.0,
        0.0,
        0.0,
        7.092498034935875e-18,
        -0.031941771507263184,
        0.0,
        0.0,
        0.031941771507263184,
        7.092498034935875e-18,
        0.0,
        0.0,
        0.0,
        0.0,
        1.0
      ],
      "name": "Sketchfab_model"
    },
    {
      "children": [
        2,
        4
      ],
      "name": "Root"
    },
    {
      "children": [
        3
      ],
      "matrix": [
        -0.29086000000000006,
        0.9551700000000001,
        -0.05519000000000001,
        0.0,
        -0.7711,
        -0.19988000000000003,
        0.6045200000000001,
        0.0,
        0.5663900000000001,
        0.21839000000000003,
        0.7946700000000001,
        0.0,
        4.076250000000001,
        1.00545,
        5.903860000000001,
        1.0
      ],
      "name": "Lamp"
    },
    {
      "name": "Lamp"
    },
    {
      "children": [
        5
      ],
      "matrix": [
        1.0,
        0.0,
        0.0,
        0.0,
        0.0,
        1.0,
        0.0,
        0.0,
        0.0,
        0.0,
        1.0,
        0.0,
        1.0674899999999998,
        0.79043,
        0.49051000000000006,
        1.0
      ],
      "name": "paragraph"
    },
    {
      "mesh": 0,
      "name": "paragraph_0"
    }
  ],
  "scene": 0,
  "scenes": [
    {
      "name": "Sketchfab_Scene",
      "nodes": [
        0
      ]
    }
  ]
}
