{
    "asset": {
        "copyright": "2024 (c) Adobe Inc.",
        "generator": "Adobe Substance 3D Stager - 522bab3571c29d3cf2b1b071f74e2d9861da2e41",
        "version": "2.0",
        "extensions": {
            "KHR_xmp_json_ld": {
                "packet": 0
            }
        }
    },
    "accessors": [
        {
            "bufferView": 0,
            "componentType": 5126,
            "count": 12777,
            "type": "VEC3",
            "max": [
                0.0817578136920929,
                0.09470055997371674,
                0.005454971455037594
            ],
            "min": [
                0.0041894493624567989,
                -0.027421874925494195,
                -0.015454969368875027
            ]
        },
        {
            "bufferView": 1,
            "componentType": 5126,
            "count": 12777,
            "type": "VEC3"
        },
        {
            "bufferView": 2,
            "componentType": 5126,
            "count": 12777,
            "type": "VEC4"
        },
        {
            "bufferView": 3,
            "componentType": 5126,
            "count": 12777,
            "type": "VEC2"
        },
        {
            "bufferView": 4,
            "componentType": 5125,
            "count": 5676,
            "type": "SCALAR",
            "max": [
                12776.0
            ],
            "min": [
                9180.0
            ]
        },
        {
            "bufferView": 5,
            "componentType": 5125,
            "count": 4017,
            "type": "SCALAR",
            "max": [
                10788.0
            ],
            "min": [
                0.0
            ]
        },
        {
            "bufferView": 6,
            "componentType": 5125,
            "count": 22512,
            "type": "SCALAR",
            "max": [
                12756.0
            ],
            "min": [
                1.0
            ]
        },
        {
            "bufferView": 7,
            "componentType": 5125,
            "count": 26529,
            "type": "SCALAR",
            "max": [
                12683.0
            ],
            "min": [
                4185.0
            ]
        }
    ],
    "bufferViews": [
        {
            "buffer": 0,
            "byteOffset": 0,
            "byteLength": 153324,
            "target": 34962
        },
        {
            "buffer": 0,
            "byteOffset": 153324,
            "byteLength": 153324,
            "target": 34962
        },
        {
            "buffer": 0,
            "byteOffset": 306648,
            "byteLength": 204432,
            "target": 34962
        },
        {
            "buffer": 0,
            "byteOffset": 511080,
            "byteLength": 102216,
            "target": 34962
        },
        {
            "buffer": 0,
            "byteOffset": 613296,
            "byteLength": 22704,
            "target": 34963
        },
        {
            "buffer": 0,
            "byteOffset": 636000,
            "byteLength": 16068,
            "target": 34963
        },
        {
            "buffer": 0,
            "byteOffset": 652068,
            "byteLength": 90048,
            "target": 34963
        },
        {
            "buffer": 0,
            "byteOffset": 742116,
            "byteLength": 106116,
            "target": 34963
        }
    ],
    "buffers": [
        {
            "byteLength": 848232,
            "uri": "paragraph_binary.bin"
        }
    ],
    "materials": [
        {
            "pbrMetallicRoughness": {
                "baseColorFactor": [
                    0.8227858543395996,
                    0.014443843625485897,
                    0.2195262312889099,
                    1.0
                ],
                "metallicFactor": 0.0,
                "roughnessFactor": 0.30000001192092898
            },
            "emissiveFactor": [
                0.11618230491876602,
                0.08152390271425247,
                0.3666810095310211
            ],
            "name": "default_material",
            "doubleSided": true
        },
        {
            "pbrMetallicRoughness": {
                "baseColorFactor": [
                    0.8227858543395996,
                    0.014443843625485897,
                    0.2195262312889099,
                    1.0
                ],
                "metallicFactor": 0.0,
                "roughnessFactor": 0.30000001192092898
            },
            "name": "default_material2",
            "doubleSided": true,
            "extensions": {
                "KHR_materials_specular": {
                    "specularColorFactor": [
                        0.8227858543395997,
                        0.014443843625485896,
                        0.2195262312889099
                    ]
                }
            }
        },
        {
            "pbrMetallicRoughness": {
                "baseColorFactor": [
                    0.8227858543395996,
                    0.014443843625485897,
                    0.2195262312889099,
                    1.0
                ],
                "metallicFactor": 0.0,
                "roughnessFactor": 0.30000001192092898
            },
            "name": "default_material3",
            "doubleSided": true
        },
        {
            "pbrMetallicRoughness": {
                "baseColorFactor": [
                    0.25818291306495669,
                    0.1811642348766327,
                    0.8148466944694519,
                    1.0
                ],
                "metallicFactor": 0.0,
                "roughnessFactor": 0.30000001192092898
            },
            "name": "default_material4",
            "doubleSided": true
        }
    ],
    "meshes": [
        {
            "name": "TextMesh#",
            "primitives": [
                {
                    "attributes": {
                        "POSITION": 0,
                        "NORMAL": 1,
                        "TANGENT": 2,
                        "TEXCOORD_0": 3
                    },
                    "indices": 4,
                    "material": 0
                },
                {
                    "attributes": {
                        "TEXCOORD_0": 3,
                        "TANGENT": 2,
                        "NORMAL": 1,
                        "POSITION": 0
                    },
                    "indices": 5,
                    "material": 1
                },
                {
                    "attributes": {
                        "POSITION": 0,
                        "NORMAL": 1,
                        "TANGENT": 2,
                        "TEXCOORD_0": 3
                    },
                    "indices": 6,
                    "material": 2
                },
                {
                    "attributes": {
                        "POSITION": 0,
                        "NORMAL": 1,
                        "TANGENT": 2,
                        "TEXCOORD_0": 3
                    },
                    "indices": 7,
                    "material": 3
                }
            ]
        }
    ],
    "nodes": [
        {
            "name": "working_cam_n3d"
        },
        {
            "mesh": 0,
            "name": "default_text_mesh"
        }
    ],
    "scenes": [
        {
            "nodes": [
                1
            ],
            "name": "scene"
        }
    ],
    "scene": 0,
    "extensions": {
        "KHR_xmp_json_ld": {
            "packets": [
                {
                    "@context": {
                        "dc": "http://purl.org/dc/elements/1.1/"
                    },
                    "dc:date": "2025-04-09T20:30:12.171Z",
                    "dc:title": "paragraph.dn",
                    "xmp:CreatorTool": "Adobe Substance 3D Stager"
                }
            ]
        }
    },
    "extensionsUsed": [
        "KHR_xmp_json_ld",
        "KHR_materials_specular"
    ]
}